<?xml version="1.0" encoding="UTF-8" standalone="no"?>
<!-- Generator: Adobe Illustrator 27.3.0, SVG Export Plug-In . SVG Version: 6.00 Build 0)  -->

<svg
   version="1.1"
   id="Layer_1"
   x="0px"
   y="0px"
   viewBox="0 0 1763.5 1763.5"
   style="enable-background:new 0 0 1763.5 1763.5;"
   xml:space="preserve"
   sodipodi:docname="logo.svg"
   inkscape:version="1.4.1 (93de688d07, 2025-03-30)"
   xmlns:inkscape="http://www.inkscape.org/namespaces/inkscape"
   xmlns:sodipodi="http://sodipodi.sourceforge.net/DTD/sodipodi-0.dtd"
   xmlns="http://www.w3.org/2000/svg"
   xmlns:svg="http://www.w3.org/2000/svg"><defs
   id="defs3" /><sodipodi:namedview
   id="namedview3"
   pagecolor="#505050"
   bordercolor="#eeeeee"
   borderopacity="1"
   inkscape:showpageshadow="0"
   inkscape:pageopacity="0"
   inkscape:pagecheckerboard="0"
   inkscape:deskcolor="#d1d1d1"
   inkscape:zoom="0.24553445"
   inkscape:cx="896.00462"
   inkscape:cy="928.5866"
   inkscape:window-width="2026"
   inkscape:window-height="710"
   inkscape:window-x="3729"
   inkscape:window-y="725"
   inkscape:window-maximized="1"
   inkscape:current-layer="Layer_1" />
<style
   type="text/css"
   id="style1">
	.st0{fill:url(#SVGID_1_);}
</style>
<linearGradient
   id="SVGID_1_"
   gradientUnits="userSpaceOnUse"
   x1="77.5448"
   y1="645.1022"
   x2="1742.8217"
   y2="1119.2615"
   gradientTransform="matrix(1 0 0 -1 0 1761.9454)">
	<stop
   offset="9.701765e-04"
   style="stop-color:#3638AE"
   id="stop1" />
	<stop
   offset="0.3168"
   style="stop-color:#5846BC"
   id="stop2" />
	<stop
   offset="1"
   style="stop-color:#AB68DE"
   id="stop3" />
</linearGradient>

<path
   fill-rule="evenodd"
   clip-rule="evenodd"
   d="m 869.88701,267.44415 -136.4962,136.49617 0.0742,0.0746 -18.284,18.28407 c -1.93966,1.94035 -4.47776,2.98515 -7.16445,2.98515 -5.59715,0 -10.14955,-4.55236 -10.14955,-10.14952 V 261.10069 c 0,-12.38839 4.92557,-24.25438 13.65709,-32.98595 L 833.31844,106.32045 c 13.35855,-13.433125 30.3739,-20.82153 47.83705,-22.388657 3.209,-0.298522 6.34348,-0.298522 9.55248,0 17.46315,1.567127 34.4785,9.030017 47.83717,22.388657 l 121.71956,121.86892 c 8.7316,8.73158 13.6571,20.59756 13.6571,32.98595 v 154.03395 c 0,5.52254 -4.4777,10.0749 -10.0749,10.0749 -2.6867,0 -5.2986,-1.11943 -7.1643,-2.98515 l -60.37479,-60.37475 -94.48017,-94.48012 c -4.47765,-4.47773 -10.14944,-6.94049 -15.97049,-7.46289 -5.82105,0.5224 -11.49283,2.98516 -15.9706,7.46289 z m 800.02119,570.23907 c 13.4332,13.4332 20.8216,30.44859 22.3887,47.91174 l -0.074,-0.14926 c 0.2985,3.209 0.2985,6.34348 0,9.55248 -1.5672,17.46315 -9.0302,34.4785 -22.3887,47.83705 l -121.7943,121.79437 c -8.7316,8.7315 -20.5975,13.657 -32.986,13.657 H 1361.02 c -5.5226,0 -10.075,-4.4777 -10.075,-10.0749 0,-2.6867 1.1195,-5.2986 2.9853,-7.1643 l 60.3747,-60.3747 94.4801,-94.48022 c 4.4778,-4.47765 6.9405,-10.14943 7.4629,-15.97048 -0.5224,-5.82105 -2.9851,-11.49295 -7.4629,-15.9706 l -136.4962,-136.49621 -18.284,-18.28407 c -1.9404,-1.94035 -2.9852,-4.47773 -2.9852,-7.16437 0,-5.52254 4.4777,-10.0749 10.0749,-10.0749 h 154.034 c 12.3884,0 24.2543,4.92551 32.9859,13.65708 z m -895.54614,52.68793 c 0,-61.71801 50.0013,-111.71935 111.71945,-111.71935 61.71804,0 111.7193,50.00134 111.7193,111.71935 0,61.71815 -50.00126,111.71945 -111.7193,111.71945 -61.71815,0 -111.71945,-50.0013 -111.71945,-111.71945 z M 420.77055,1068.361 c 0,-2.6867 -1.04475,-5.2986 -2.9851,-7.1643 L 262.93052,906.34175 c -4.47773,-4.47765 -6.93974,-10.14955 -7.46288,-15.9706 0.52314,-5.82105 2.98515,-11.49283 7.46288,-15.97049 L 399.4267,737.90445 417.71081,719.62038 c 1.86572,-1.86573 2.98511,-4.47773 2.98511,-7.16437 0,-5.59716 -4.5524,-10.14953 -10.14955,-10.14953 h -153.9593 c -12.38839,0 -24.25438,4.92551 -32.98595,13.65709 L 101.88167,837.75785 c -13.358863,13.35857 -20.821756,30.37396 -22.388655,47.83711 -0.298521,3.20901 -0.298521,6.34349 0,9.55249 1.566899,17.46315 8.955092,34.4785 22.388655,47.91168 l 121.79407,121.79437 c 8.73158,8.7315 20.59756,13.657 32.98595,13.657 H 410.621 c 5.59715,0 10.14955,-4.5524 10.14955,-10.1495 z m 575.68706,350.3825 -94.48025,94.4801 c -4.47765,4.4777 -10.14943,6.9404 -15.97048,7.4628 -5.82105,-0.5224 -11.49284,-2.9851 -15.9706,-7.4628 L 715.18144,1358.3687 c -1.86583,-1.8657 -4.47777,-2.9852 -7.16445,-2.9852 -5.59715,0 -10.07492,4.5524 -10.07492,10.0749 v 154.034 c 0,12.3883 4.92625,24.1797 13.65709,32.9113 l 121.79437,121.7943 c 13.35855,13.3586 30.3739,20.8214 47.83705,22.3887 3.209,0.2984 6.34348,0.2984 9.55248,0 17.46315,-1.5673 34.4785,-8.9555 47.83717,-22.3887 l 121.79427,-121.7943 c 8.7315,-8.7316 13.6571,-20.5976 13.6571,-32.9859 v -154.034 c 0,-5.5971 -4.5524,-10.0749 -10.075,-10.0749 -2.6866,0 -5.2239,1.0449 -7.1643,2.9852 l -60.37469,60.3748 z M 1315.0481,438.56885 h -193.0649 l 0.074,0.0746 h -25.8962 c -2.6866,0 -5.2986,-1.11943 -7.1644,-2.98516 -3.9553,-3.95532 -3.9553,-10.3734 0,-14.32873 l 108.8835,-108.88351 c 8.7316,-8.73157 20.5976,-13.65707 32.9859,-13.65707 h 172.2435 c 18.8811,0 36.195,6.79123 49.6281,18.06018 2.3882,2.01498 4.6271,4.25385 6.7167,6.7166 11.2689,13.43319 18.0601,30.74709 18.0601,49.62819 v 172.2434 c 0,12.38839 -4.9255,24.25438 -13.6571,32.98595 l -108.8835,108.8835 c -3.9553,3.95533 -10.3733,3.95533 -14.3287,0 -1.9403,-1.94035 -2.9852,-4.47773 -2.9852,-7.16438 V 461.1814 c 0,-6.26883 -2.3135,-12.08988 -6.0449,-16.56761 -4.4777,-3.80607 -10.2241,-6.04494 -16.5676,-6.04494 z M 590.40265,1342.1742 H 456.7424 c -6.34348,0 -12.16453,-2.2388 -16.56755,-6.0449 -3.73155,-4.5524 -6.04575,-10.2988 -6.04575,-16.6422 V 1100.526 c 0,-2.6866 -1.04475,-5.224 -2.9851,-7.1644 -3.95465,-3.9553 -10.37345,-3.9553 -14.32799,0 l -108.88429,108.8835 c -8.73083,8.7316 -13.65634,20.5976 -13.65634,32.9114 v 172.2433 c 0,18.8812 6.79123,36.1951 18.06018,49.6283 2.08887,2.4627 4.32847,4.7015 6.71582,6.7165 13.43398,11.269 30.74718,18.0602 49.62825,18.0602 h 172.24415 c 12.38764,0 24.17969,-4.9254 32.91052,-13.6571 l 108.88431,-108.8835 c 3.95453,-3.9553 3.95453,-10.3734 0,-14.3286 -1.86572,-1.8659 -4.47846,-2.9853 -7.16514,-2.9853 h -85.30008 z m -173.512,-654.86737 -108.8843,-108.8835 v -0.0746 c -8.73083,-8.73232 -13.65633,-20.59831 -13.65633,-32.98669 V 373.11935 c 0,-18.88111 6.79122,-36.195 18.06018,-49.62819 2.01423,-2.38812 4.25383,-4.62699 6.71581,-6.7166 13.43399,-11.26896 30.74707,-18.06018 49.62825,-18.06018 h 172.24416 c 12.38763,0 24.25432,4.92551 32.98515,13.65633 l 108.8843,108.88426 c 3.95454,3.95532 3.95454,10.3734 0,14.32873 -1.94035,1.94035 -4.47856,2.98441 -7.16513,2.98441 H 456.81703 c -6.26885,0 -12.0899,2.31349 -16.56755,6.04494 -3.80618,4.40309 -6.04495,10.2249 -6.04495,16.56761 v 218.96179 c 0,2.68665 -1.12018,5.29866 -2.9859,7.16438 -3.95465,3.95533 -10.37345,3.95533 -14.32798,0 z m 904.57555,17.91018 c -1.8657,-1.86572 -4.4778,-2.91053 -7.1645,-2.91053 l -218.2892,0.67167 c -6.3435,0 -12.0899,-2.23887 -16.5677,-6.04494 -3.7314,-4.47773 -6.0449,-10.29878 -6.0449,-16.56761 l 0.6717,-217.99088 c 0,-2.8359 -1.1195,-5.59717 -3.1345,-7.61215 -4.1791,-4.17922 -10.9704,-4.17922 -15.1497,0 L 902.052,609.39356 c -4.47766,4.47773 -10.14944,6.94048 -15.97049,7.46289 -5.82105,-0.52241 -11.49295,-2.98516 -15.9706,-7.46289 L 716.37546,454.76257 c -4.17992,-4.17922 -10.9704,-4.25384 -15.14964,0 -2.01578,2.01498 -3.13516,4.77625 -3.13516,7.61215 l 0.67238,217.99088 c 0,6.34345 -2.23888,12.1645 -6.04495,16.56761 -4.47777,3.73143 -10.2995,6.04494 -16.56755,6.04494 L 457.8611,702.30648 c -2.68668,0 -5.29862,1.04481 -7.16433,2.98516 l -0.59787,0.59703 c -3.95453,3.95533 -3.95453,10.37341 0,14.32874 l 155.07954,154.10862 c 4.47696,4.47765 6.94055,10.14944 7.46286,15.97049 -0.52231,5.82105 -2.9859,11.49294 -7.46286,15.9706 L 450.39823,1060.1518 c -1.94035,1.8657 -2.98521,4.4778 -2.98521,7.1643 v 0.8956 c 0,5.5972 4.5516,10.1496 10.14886,10.0749 l 218.66329,-0.6717 c 6.34337,0 12.16442,2.2389 16.56755,6.045 3.73144,4.5524 6.04495,10.2988 6.04495,16.6422 l -0.67238,218.2894 c 0,2.6867 1.04475,5.2986 2.9859,7.1643 l 0.59695,0.5971 c 3.95465,3.9553 10.37277,3.9553 14.32878,0 l 154.10862,-155.0787 c 4.47766,-4.4778 10.14955,-6.9406 15.9706,-7.4629 5.82105,0.5223 11.49284,2.9851 15.97049,7.4629 l 153.88467,154.7802 c 1.8658,1.9403 4.4778,2.9852 7.1644,2.9852 h 0.8956 c 5.5971,0 10.1495,-4.5524 10.0749,-10.1496 l -0.6717,-218.6626 c 0,-6.3433 2.2389,-12.0897 6.0449,-16.5675 4.4778,-3.7314 10.2989,-6.045 16.5677,-6.045 l 218.6624,0.6717 c 5.5972,0 10.1496,-4.4777 10.1496,-10.0749 v -0.8956 c 0,-2.6865 -1.0449,-5.224 -2.9852,-7.1643 l -52.9118,-52.9119 c -1.7912,-1.7911 -3.8061,-3.3582 -5.821,-4.8508 l -96.1221,-96.12198 c -4.4777,-4.47766 -6.9404,-10.14955 -7.4628,-15.9706 0.5224,-5.82105 2.9851,-11.49284 7.4628,-15.97049 l 155.0041,-154.10862 c 3.9554,-3.95533 3.9554,-10.44804 0,-14.40337 z m -236.7228,237.76749 50.7476,50.74763 h -71.7929 c -19.5528,0 -37.3144,7.31357 -50.9715,19.17957 -1.4926,1.2688 -2.9105,2.6867 -4.1791,4.1792 -11.94069,13.6571 -19.17979,31.4934 -19.17979,50.9716 v 71.7929 l -50.74748,-50.7476 c -13.80635,-13.8064 -31.56804,-21.2692 -49.62825,-22.4633 -0.9627,-0.074 -1.94035,-0.1118 -2.918,-0.1118 -1.00002,0 -2.00004,0.038 -2.97769,0.1118 -18.06021,1.1941 -35.82178,8.6569 -49.62813,22.4633 l -50.74764,50.7476 v -71.7929 c 0,-19.5528 -7.3136,-37.3145 -19.25503,-50.9716 -1.26796,-1.4925 -2.68657,-2.9104 -4.17843,-4.1792 -13.65709,-11.9405 -31.4934,-19.17957 -51.04617,-19.17957 h -71.79295 l 50.74763,-50.74763 c 13.80555,-13.80635 21.26842,-31.56792 22.46324,-49.62814 0.14926,-1.94035 0.14926,-3.95533 0,-5.89568 -1.19482,-18.06022 -8.65769,-35.82185 -22.46324,-49.62819 l -50.74763,-50.74762 h 71.79295 c 19.55277,0 37.38908,-7.31364 51.04617,-19.25425 0.8172,-0.69406 1.61123,-1.43362 2.37091,-2.20603 0.62914,-0.63808 1.23362,-1.2978 1.80752,-1.97319 11.94143,-13.65707 19.25503,-31.49338 19.25503,-51.04613 V 640.8123 l 50.74764,50.74762 c 13.80635,13.80634 31.56792,21.26923 49.62813,22.4633 1.94035,0.14925 3.95534,0.14925 5.89569,0 18.06021,-1.19407 35.8219,-8.65696 49.62825,-22.4633 l 50.74748,-50.74762 v 71.79297 c 0,19.55275 7.3138,37.38906 19.17979,51.04613 1.2686,1.49258 2.6865,2.91052 4.1791,4.17922 13.6571,11.94061 31.4934,19.25425 50.9715,19.25425 h 71.7929 l -50.7476,50.74762 c -13.8063,13.80634 -21.2692,31.56797 -22.4632,49.62819 -0.1493,1.94035 -0.1493,3.95533 0,5.89568 1.194,18.06022 8.6569,35.82179 22.4632,49.62814 z m 270.2311,150.4518 108.8835,108.8835 -0.074,0.1492 c 8.7316,8.8062 13.6571,20.5976 13.6571,32.986 v 172.2433 c 0,18.8812 -6.7912,36.1951 -18.0601,49.6283 -2.015,2.388 -4.2539,4.7015 -6.7167,6.7165 -13.4332,11.269 -30.7471,18.0602 -49.6281,18.0602 h -172.2435 c -12.3883,0 -24.2543,-4.9255 -32.9859,-13.657 l -108.8835,-108.8835 c -3.9553,-3.9554 -3.9553,-10.3735 0,-14.3288 1.9404,-1.9404 4.4778,-2.9851 7.1645,-2.9851 h 218.9609 c 6.2689,0 12.0899,-2.3135 16.5676,-6.045 3.806,-4.5524 6.0449,-10.2988 6.0449,-16.6422 v -218.9611 c 0,-2.6866 1.1195,-5.2986 2.9852,-7.1643 3.9554,-3.9554 10.3734,-3.9554 14.3287,0 z"
   fill="#070707"
   id="path1"
   style="fill:#ee274d;fill-opacity:1;stroke-width:0.999999" /></svg>
