<?xml version="1.0" encoding="UTF-8" standalone="no"?>
<!-- Generator: Adobe Illustrator 25.4.1, SVG Export Plug-In . SVG Version: 6.00 Build 0)  -->

<svg
   version="1.2"
   id="Layer_1"
   x="0px"
   y="0px"
   viewBox="0 0 1731.47 999.48"
   overflow="visible"
   xml:space="preserve"
   sodipodi:docname="logo.svg"
   inkscape:version="1.4.1 (93de688d07, 2025-03-30)"
   xmlns:inkscape="http://www.inkscape.org/namespaces/inkscape"
   xmlns:sodipodi="http://sodipodi.sourceforge.net/DTD/sodipodi-0.dtd"
   xmlns="http://www.w3.org/2000/svg"
   xmlns:svg="http://www.w3.org/2000/svg"><defs
   id="defs3" /><sodipodi:namedview
   id="namedview3"
   pagecolor="#505050"
   bordercolor="#eeeeee"
   borderopacity="1"
   inkscape:showpageshadow="0"
   inkscape:pageopacity="0"
   inkscape:pagecheckerboard="0"
   inkscape:deskcolor="#d1d1d1"
   inkscape:zoom="0.30633654"
   inkscape:cx="1286.1672"
   inkscape:cy="355.81782"
   inkscape:window-width="2026"
   inkscape:window-height="1070"
   inkscape:window-x="3729"
   inkscape:window-y="5"
   inkscape:window-maximized="1"
   inkscape:current-layer="Layer_1" />
<linearGradient
   id="SVGID_1_"
   gradientUnits="userSpaceOnUse"
   x1="61.5102"
   y1="734.8093"
   x2="1726.7871"
   y2="260.6501">
	<stop
   offset="9.701765e-04"
   style="stop-color:#3638AE"
   id="stop1" />
	<stop
   offset="0.3168"
   style="stop-color:#5846BC"
   id="stop2" />
	<stop
   offset="1"
   style="stop-color:#AB68DE"
   id="stop3" />
</linearGradient>

<path
   fill-rule="evenodd"
   clip-rule="evenodd"
   d="m 843.36611,139.23739 -80.20616,80.20615 0.0439,0.0439 L 752.46,230.2313 c -1.13973,1.14015 -2.63115,1.75409 -4.20983,1.75409 -3.28895,0 -5.96395,-2.675 -5.96395,-5.96394 v -90.51147 c 0,-7.27951 2.89427,-14.25206 8.02501,-19.38279 l 71.56722,-71.567218 c 7.84959,-7.8934 17.84795,-12.234881 28.10942,-13.155739 1.88565,-0.175409 3.72746,-0.175409 5.61311,0 10.26148,0.920858 20.25985,5.306104 28.10944,13.155739 l 71.52336,71.611068 c 5.13074,5.13074 8.025,12.10329 8.025,19.38278 v 90.51149 c 0,3.24508 -2.63115,5.92008 -5.92008,5.92008 -1.57869,0 -3.11353,-0.65779 -4.20983,-1.75409 L 917.65218,194.75461 862.13497,139.2374 c -2.63116,-2.63116 -5.96394,-4.07828 -9.38443,-4.38526 -3.42049,0.30698 -6.75328,1.7541 -9.38442,4.38526 z m 470.09839,335.07665 c 7.8934,7.89344 12.2349,17.8918 13.1557,28.15328 l -0.044,-0.0877 c 0.1754,1.88566 0.1754,3.72746 0,5.61312 -0.9208,10.26148 -5.3061,20.25983 -13.1557,28.10943 l -71.5672,71.56722 c -5.1308,5.13073 -12.1033,8.02499 -19.3828,8.02499 h -90.5115 c -3.2451,0 -5.9201,-2.63115 -5.9201,-5.92008 0,-1.57868 0.6578,-3.11353 1.7541,-4.20983 l 35.4767,-35.47665 55.5172,-55.51721 c 2.6311,-2.63115 4.0783,-5.96394 4.3852,-9.38442 -0.3069,-3.4205 -1.7541,-6.75328 -4.3852,-9.38443 l -80.2062,-80.20615 -10.7438,-10.74386 c -1.1402,-1.14016 -1.7541,-2.63115 -1.7541,-4.20984 0,-3.24508 2.6311,-5.92008 5.9201,-5.92008 h 90.5114 c 7.2796,0 14.2521,2.89426 19.3828,8.025 z m -526.22955,30.95984 c 0,-36.26599 29.38115,-65.64714 65.64714,-65.64714 36.26598,0 65.64713,29.38115 65.64713,65.64714 0,36.26598 -29.38115,65.64713 -65.64713,65.64713 -36.26599,0 -65.64714,-29.38115 -65.64714,-65.64713 z M 579.46199,609.86199 c 0,-1.57869 -0.61393,-3.11352 -1.7541,-4.20983 L 486.71403,514.6583 c -2.63114,-2.63114 -4.07783,-5.96393 -4.38524,-9.38442 0.30741,-3.4205 1.7541,-6.75329 4.38524,-9.38443 l 80.20615,-80.20615 10.74385,-10.74385 c 1.09632,-1.09632 1.7541,-2.63115 1.7541,-4.20984 0,-3.28894 -2.67499,-5.96394 -5.96393,-5.96394 h -90.46763 c -7.27951,0 -14.25204,2.89427 -19.38278,8.02501 l -71.52323,71.56721 c -7.84977,7.84959 -12.23502,17.84795 -13.15574,28.10943 -0.17541,1.88565 -0.17541,3.72746 0,5.61311 0.92072,10.26148 5.26207,20.25984 13.15574,28.15328 l 71.56707,71.56722 c 5.13074,5.13074 12.10329,8.02501 19.3828,8.02501 h 90.46763 c 3.28893,0 5.96393,-2.67501 5.96393,-5.96395 z m 338.27788,205.88731 -55.51721,55.51722 c -2.63115,2.63115 -5.96393,4.07828 -9.38443,4.38524 -3.42049,-0.30696 -6.75328,-1.75409 -9.38443,-4.38524 l -90.99385,-90.99386 c -1.09632,-1.09631 -2.63115,-1.75409 -4.20984,-1.75409 -3.28894,0 -5.92008,2.675 -5.92008,5.92007 v 90.51148 c 0,7.27951 2.89471,14.2082 8.025,19.33894 l 71.56722,71.56721 c 7.84958,7.84959 17.84795,12.23484 28.10943,13.15574 1.88565,0.17541 3.72746,0.17541 5.61311,0 10.26147,-0.9209 20.25984,-5.26229 28.10942,-13.15574 l 71.56722,-71.56721 c 5.13074,-5.13074 8.02501,-12.10328 8.02501,-19.38279 v -90.51148 c 0,-3.28893 -2.67501,-5.92008 -5.92009,-5.92008 -1.57869,0 -3.06967,0.61393 -4.20984,1.7541 l -35.47664,35.47664 z M 1104.946,239.79151 H 991.49972 l 0.0439,0.0439 h -15.2168 c -1.5787,0 -3.11353,-0.65779 -4.20985,-1.7541 -2.32418,-2.32418 -2.32418,-6.0955 0,-8.41967 l 63.98073,-63.98074 c 5.1308,-5.13074 12.1033,-8.02501 19.3828,-8.02501 h 101.2115 c 11.0946,0 21.2684,3.99058 29.1619,10.6123 1.4033,1.18402 2.7189,2.49959 3.9468,3.94672 6.6216,7.89344 10.6123,18.06722 10.6123,29.16189 v 101.21148 c 0,7.2795 -2.8943,14.25205 -8.0251,19.38279 l -63.9808,63.98074 c -2.3241,2.32418 -6.0954,2.32418 -8.4196,0 -1.1402,-1.14017 -1.7541,-2.63115 -1.7541,-4.20983 V 253.07881 c 0,-3.68361 -1.3595,-7.1041 -3.5521,-9.73525 -2.6311,-2.23647 -6.0078,-3.55205 -9.7352,-3.55205 z M 679.13907,770.75667 h -78.53975 c -3.72746,0 -7.14796,-1.31557 -9.73526,-3.55204 -2.19261,-2.675 -3.55248,-6.05164 -3.55248,-9.7791 V 628.76241 c 0,-1.5787 -0.61394,-3.06967 -1.7541,-4.20984 -2.32374,-2.32419 -6.09549,-2.32419 -8.41923,0 l -63.98118,63.98074 c -5.13031,5.13074 -8.02456,12.10329 -8.02456,19.33894 v 101.21148 c 0,11.09467 3.99057,21.26844 10.61229,29.16188 1.22743,1.44713 2.54344,2.76271 3.94629,3.94672 7.89388,6.62173 18.06721,10.6123 29.16188,10.6123 h 101.21192 c 7.27907,0 14.2082,-2.89427 19.33849,-8.025 l 63.98118,-63.98074 c 2.32375,-2.32418 2.32375,-6.0955 0,-8.41968 -1.0963,-1.09631 -2.63158,-1.75409 -4.21026,-1.75409 H 679.05136 Z M 577.1821,385.95177 513.20091,321.97103 v -0.0439 c -5.13029,-5.13117 -8.02456,-12.10371 -8.02456,-19.38322 v -101.211 c 0,-11.09468 3.99058,-21.26844 10.61231,-29.16189 1.18357,-1.40328 2.49958,-2.71885 3.94628,-3.94672 7.89388,-6.62172 18.06722,-10.61229 29.16189,-10.61229 h 101.21191 c 7.27907,0 14.25205,2.89425 19.38236,8.02455 l 63.98117,63.98119 c 2.32374,2.32418 2.32374,6.09548 0,8.41966 -1.14017,1.14017 -2.63159,1.75367 -4.21027,1.75367 H 600.64316 c -3.6836,0 -7.1041,1.35942 -9.73524,3.55205 -2.23647,2.58729 -3.55205,6.00822 -3.55205,9.73525 v 128.66356 c 0,1.57868 -0.65823,3.11352 -1.75453,4.20983 -2.32375,2.32418 -6.0955,2.32418 -8.41924,0 z m 531.5352,10.52415 c -1.0963,-1.09631 -2.6311,-1.71025 -4.2098,-1.71025 l -128.26844,0.39468 c -3.72746,0 -7.1041,-1.31558 -9.73525,-3.55205 -2.19263,-2.63115 -3.55205,-6.05165 -3.55205,-9.73525 l 0.39468,-128.09303 c 0,-1.6664 -0.65779,-3.28895 -1.84181,-4.47296 -2.45574,-2.45573 -6.44631,-2.45573 -8.90204,0 l -90.33608,90.8623 c -2.63114,2.63115 -5.96394,4.07828 -9.38442,4.38525 -3.4205,-0.30697 -6.75328,-1.7541 -9.38443,-4.38525 l -90.33607,-90.8623 c -2.45618,-2.45573 -6.44632,-2.49959 -8.90206,0 -1.18445,1.18401 -1.84223,2.80656 -1.84223,4.47296 l 0.39511,128.09303 c 0,3.72746 -1.31558,7.14796 -3.55205,9.73525 -2.63116,2.19262 -6.05208,3.55205 -9.73524,3.55205 l -128.26846,-0.39468 c -1.57869,0 -3.11352,0.61394 -4.20983,1.7541 l -0.35126,0.35082 c -2.32374,2.32418 -2.32374,6.0955 0,8.41968 l 91.12585,90.55532 c 2.63071,2.63115 4.07828,5.96395 4.38524,9.38443 -0.30696,3.4205 -1.75453,6.75328 -4.38524,9.38443 l -90.95,90.42378 c -1.14017,1.0963 -1.7541,2.63115 -1.7541,4.20983 v 0.52623 c 0,3.28893 2.67456,5.96393 5.96349,5.92008 l 128.48815,-0.39466 c 3.72746,0 7.14796,1.31556 9.73525,3.55203 2.19262,2.67501 3.55205,6.05165 3.55205,9.77911 l -0.39511,128.26845 c 0,1.57869 0.61393,3.11352 1.75454,4.20983 l 0.35082,0.35082 c 2.32374,2.32419 6.09504,2.32419 8.41967,0 l 90.55534,-91.12541 c 2.63114,-2.63114 5.96393,-4.07828 9.38442,-4.38525 3.42049,0.30697 6.75327,1.75411 9.38443,4.38525 l 90.42377,90.95 c 1.09631,1.14017 2.63115,1.7541 4.20983,1.7541 h 0.52623 c 3.28893,0 5.96393,-2.675 5.92009,-5.96393 L 962.99562,628.587 c 0,-3.72746 1.31556,-7.1041 3.55205,-9.73526 2.63114,-2.19261 6.05164,-3.55203 9.73524,-3.55203 l 128.48769,0.39466 c 3.2889,0 5.9639,-2.63115 5.9639,-5.92008 v -0.52623 c 0,-1.57868 -0.6139,-3.06967 -1.7541,-4.20983 l -31.0913,-31.0914 c -1.0525,-1.05246 -2.2365,-1.97336 -3.4205,-2.85041 l -56.482,-56.48197 c -2.6311,-2.63115 -4.0783,-5.96393 -4.3852,-9.38443 0.3069,-3.42048 1.7541,-6.75328 4.3852,-9.38443 l 91.0816,-90.55532 c 2.3241,-2.32418 2.3241,-6.13936 0,-8.46353 z m -139.09997,139.71394 29.81968,29.81967 h -42.18607 c -11.48935,0 -21.92623,4.29755 -29.95123,11.27008 -0.87705,0.7455 -1.71025,1.57869 -2.45574,2.45574 -7.01639,8.025 -11.27008,18.50574 -11.27008,29.95123 v 42.18607 l -29.81968,-29.81968 c -8.1127,-8.1127 -18.54959,-12.49794 -29.16188,-13.19958 -0.5657,-0.0439 -1.14016,-0.0657 -1.71463,-0.0657 -0.58763,0 -1.17525,0.0219 -1.74971,0.0657 -10.6123,0.70164 -21.04918,5.08688 -29.1619,13.19958 l -29.81966,29.81968 v -42.18607 c 0,-11.48934 -4.29755,-21.92623 -11.31438,-29.95123 -0.74505,-0.87705 -1.57869,-1.71024 -2.45529,-2.45574 -8.02501,-7.01639 -18.50575,-11.27008 -29.99509,-11.27008 H 706.1956 l 29.81968,-29.81967 c 8.11226,-8.11271 12.49751,-18.54959 13.19958,-29.16189 0.0877,-1.14015 0.0877,-2.32418 0,-3.46434 -0.70207,-10.61229 -5.08732,-21.04918 -13.19958,-29.16189 L 706.1956,444.58207 h 42.18607 c 11.48934,0 21.97008,-4.29754 29.99509,-11.31393 0.48017,-0.40783 0.94677,-0.84241 1.39319,-1.29628 0.36968,-0.37494 0.72488,-0.7626 1.0621,-1.15946 7.01683,-8.025 11.31438,-18.50574 11.31438,-29.99509 v -42.18607 l 29.81966,29.81968 c 8.11272,8.1127 18.5496,12.49795 29.1619,13.19959 1.14016,0.0877 2.32418,0.0877 3.46434,0 10.61229,-0.70164 21.04918,-5.08689 29.16188,-13.19959 l 29.81968,-29.81968 v 42.18607 c 0,11.48935 4.29754,21.97009 11.27008,29.99509 0.74549,0.87705 1.57869,1.71024 2.45574,2.45574 8.025,7.01639 18.50574,11.31393 29.95123,11.31393 h 42.18607 l -29.81968,29.81967 c -8.1127,8.11271 -12.49795,18.5496 -13.19959,29.16189 -0.0877,1.14016 -0.0877,2.32419 0,3.46434 0.70164,10.6123 5.08689,21.04918 13.19959,29.16189 z m 158.78977,88.40656 63.9808,63.98075 -0.044,0.0877 c 5.1307,5.17459 8.025,12.10328 8.025,19.38279 v 101.21148 c 0,11.09467 -3.9906,21.26844 -10.6123,29.16188 -1.184,1.40328 -2.4996,2.76271 -3.9467,3.94673 -7.8935,6.62172 -18.0672,10.61229 -29.1619,10.61229 h -101.2114 c -7.2795,0 -14.2521,-2.89427 -19.3828,-8.025 L 972.07308,780.9743 c -2.32418,-2.32418 -2.32418,-6.0955 0,-8.41968 1.14016,-1.14015 2.63114,-1.75409 4.20983,-1.75409 H 1104.946 c 3.6836,0 7.1041,-1.35943 9.7353,-3.55206 2.2364,-2.675 3.552,-6.05164 3.552,-9.77908 V 628.80626 c 0,-1.57869 0.6578,-3.11352 1.7541,-4.20984 2.3242,-2.32418 6.0955,-2.32418 8.4197,0 z"
   fill="#070707"
   id="path1"
   style="fill:#ee274d;fill-opacity:1;stroke-width:1" /></svg>
