<?xml version="1.0" encoding="UTF-8" standalone="no"?>
<!-- Generator: Adobe Illustrator 25.4.1, SVG Export Plug-In . SVG Version: 6.00 Build 0)  -->

<svg
   version="1.2"
   id="Layer_1"
   x="0px"
   y="0px"
   viewBox="0 0 1731.47 999.48"
   overflow="visible"
   xml:space="preserve"
   sodipodi:docname="favicon.svg"
   inkscape:version="1.4.1 (93de688d07, 2025-03-30)"
   xmlns:inkscape="http://www.inkscape.org/namespaces/inkscape"
   xmlns:sodipodi="http://sodipodi.sourceforge.net/DTD/sodipodi-0.dtd"
   xmlns="http://www.w3.org/2000/svg"
   xmlns:svg="http://www.w3.org/2000/svg"><defs
   id="defs1" /><sodipodi:namedview
   id="namedview1"
   pagecolor="#505050"
   bordercolor="#eeeeee"
   borderopacity="1"
   inkscape:showpageshadow="0"
   inkscape:pageopacity="0"
   inkscape:pagecheckerboard="0"
   inkscape:deskcolor="#d1d1d1"
   inkscape:zoom="0.35798219"
   inkscape:cx="815.68304"
   inkscape:cy="603.38197"
   inkscape:window-width="2026"
   inkscape:window-height="710"
   inkscape:window-x="3729"
   inkscape:window-y="5"
   inkscape:window-maximized="1"
   inkscape:current-layer="Layer_1" />
	 <style
   id="style1">
    path {
      fill: black;
    }
    @media (prefers-color-scheme: dark) {
      path {
        fill: white;
      }
    }
  </style>

<path
   fill-rule="evenodd"
   clip-rule="evenodd"
   d="m 868.83323,133.46865 -79.51052,79.51049 0.0438,0.0436 -10.65072,10.65065 c -1.12975,1.1303 -2.60822,1.7389 -4.1732,1.7389 -3.26043,0 -5.91222,-2.65181 -5.91222,-5.9122 v -89.72655 c 0,-7.21635 2.86919,-14.12843 7.95536,-19.21467 l 70.9465,-70.946483 c 7.78152,-7.824921 17.69312,-12.128752 27.86567,-13.041621 1.8693,-0.17384 3.69503,-0.17384 5.56433,0 10.17256,0.912869 20.08415,5.260076 27.86567,13.041621 l 70.90294,70.989963 c 5.08638,5.08624 7.95557,11.99829 7.95557,19.21468 v 89.72644 c 0,3.21693 -2.60844,5.86874 -5.86887,5.86874 -1.56498,0 -3.08639,-0.65208 -4.1732,-1.7389 l -35.16903,-35.16892 -55.03576,-55.03571 c -2.60823,-2.60832 -5.91223,-4.0429 -9.30295,-4.3472 -3.39091,0.3043 -6.69471,1.73888 -9.30314,4.3472 z M 1334.8544,465.6391 c 7.825,7.82497 12.1287,17.7366 13.0417,27.90908 l -0.044,-0.087 c 0.173,1.86931 0.173,3.69515 0,5.56444 -0.913,10.17247 -5.2601,20.08412 -13.0416,27.86562 l -70.9465,70.94651 c -5.0864,5.08623 -11.9983,7.95538 -19.2147,7.95538 h -89.7264 c -3.2169,0 -5.8687,-2.60833 -5.8687,-5.86872 0,-1.56499 0.652,-3.08654 1.7388,-4.17333 l 35.1689,-35.16895 55.0357,-55.03569 c 2.6084,-2.60834 4.0429,-5.9122 4.3472,-9.30302 -0.3043,-3.39084 -1.7388,-6.69472 -4.3472,-9.30304 l -79.5105,-79.5105 -10.6508,-10.65068 c -1.1301,-1.13027 -1.7388,-2.60833 -1.7388,-4.17332 0,-3.21694 2.6085,-5.86873 5.8687,-5.86873 h 89.7266 c 7.2163,0 14.1284,2.86916 19.2146,7.95539 z m -521.66538,30.69131 c 0,-35.95146 29.12633,-65.07778 65.07783,-65.07778 35.95132,0 65.07763,29.12632 65.07763,65.07778 0,35.95143 -29.12631,65.07775 -65.07763,65.07775 -35.9515,0 -65.07783,-29.12632 -65.07783,-65.07775 z M 607.21812,600.0114 c 0,-1.56499 -0.60862,-3.08653 -1.7389,-4.17333 L 515.2746,505.63343 c -2.60833,-2.60834 -4.04249,-5.9122 -4.3472,-9.30302 0.30471,-3.39084 1.73887,-6.69472 4.3472,-9.30304 l 79.51049,-79.5105 10.65068,-10.65067 c 1.08679,-1.08679 1.73888,-2.60833 1.73888,-4.17333 0,-3.26039 -2.65179,-5.9122 -5.9122,-5.9122 h -89.68299 c -7.21636,0 -14.12844,2.86915 -19.21467,7.9554 l -70.90289,70.94648 c -7.7817,7.78152 -12.1289,17.69315 -13.04165,27.86563 -0.17384,1.86932 -0.17384,3.69514 0,5.56444 0.91275,10.17246 5.21645,20.08412 13.04165,27.9091 l 70.94636,70.94648 c 5.08625,5.08626 11.9983,7.95541 19.21468,7.95541 h 89.68296 c 3.26041,0 5.91222,-2.65181 5.91222,-5.91221 z M 942.562,804.11297 887.52623,859.14868 c -2.60822,2.60833 -5.91201,4.04291 -9.30294,4.34721 -3.39092,-0.3043 -6.69471,-1.73888 -9.30293,-4.34721 l -90.2048,-90.20465 c -1.08681,-1.08679 -2.60822,-1.73887 -4.1732,-1.73887 -3.26044,0 -5.86887,2.6518 -5.86887,5.86874 v 89.72644 c 0,7.21638 2.86961,14.08498 7.95536,19.17121 l 70.94651,70.94647 c 7.78153,7.78153 17.69331,12.12874 27.86566,13.04165 1.8693,0.17384 3.69525,0.17384 5.56455,0 10.17235,-0.91291 20.08414,-5.21666 27.86567,-13.04165 l 70.94628,-70.94647 c 5.08638,-5.08623 7.95558,-11.99831 7.95558,-19.21469 v -89.72644 c 0,-3.26039 -2.65179,-5.86873 -5.86887,-5.86873 -1.56498,0 -3.04304,0.60861 -4.17321,1.73888 L 942.562,804.06952 Z m 185.5825,-570.96233 h -112.4624 l 0.044,0.0436 h -15.0849 c -1.56499,0 -3.0866,-0.65208 -4.17342,-1.7389 -2.3039,-2.304 -2.3039,-6.0426 0,-8.34662 l 63.42602,-63.42582 c 5.0861,-5.08625 11.9983,-7.9554 19.2144,-7.9554 h 100.3339 c 10.9983,0 21.0838,3.95595 28.9089,10.52025 1.3911,1.17376 2.6954,2.47791 3.9125,3.91248 6.5641,7.82498 10.5202,17.91052 10.5202,28.90896 v 100.33366 c 0,7.21635 -2.8692,14.12843 -7.9555,19.21467 l -63.4257,63.42581 c -2.304,2.30402 -6.0426,2.30402 -8.3465,0 -1.1304,-1.13027 -1.7391,-2.60833 -1.7391,-4.17332 V 246.32277 c 0,-3.65164 -1.3475,-7.04248 -3.5212,-9.65081 -2.6081,-2.21706 -5.9556,-3.52123 -9.6508,-3.52123 z M 706.03067,759.51059 h -77.85856 c -3.69512,0 -7.08596,-1.30415 -9.6508,-3.52124 -2.17361,-2.65179 -3.52168,-5.99914 -3.52168,-9.69429 V 618.74788 c 0,-1.56499 -0.60861,-3.04305 -1.73888,-4.17332 -2.30359,-2.30402 -6.04263,-2.30402 -8.34621,0 l -63.42626,63.42582 c -5.08581,5.08623 -7.95496,11.99831 -7.95496,19.17121 v 100.33364 c 0,10.99844 3.95596,21.08397 10.52025,28.90896 1.21677,1.43457 2.52139,2.73874 3.91205,3.91247 7.82542,6.56429 17.91051,10.52026 28.90896,10.52026 h 100.33409 c 7.21602,0 14.085,-2.86915 19.17076,-7.95539 l 63.42635,-63.42583 c 2.30348,-2.30401 2.30348,-6.0426 0,-8.34663 -1.08681,-1.08681 -2.60885,-1.7389 -4.17383,-1.7389 H 705.94374 Z M 604.958,378.04321 541.53175,314.61739 v -0.0436 c -5.0858,-5.08668 -7.95495,-11.99873 -7.95495,-19.21512 v -100.3331 c 0,-10.99846 3.95596,-21.08399 10.52023,-28.90896 1.17331,-1.39111 2.47793,-2.69526 3.91207,-3.9125 7.82542,-6.56429 17.91052,-10.52026 28.90895,-10.52026 h 100.33418 c 7.21582,0 14.12836,2.86917 19.21411,7.95498 l 63.42636,63.42624 c 2.30348,2.30403 2.30348,6.04263 0,8.34666 -1.13038,1.13027 -2.60885,1.73844 -4.17383,1.73844 H 628.2156 c -3.65167,0 -7.04251,1.34764 -9.65083,3.52124 -2.21707,2.56486 -3.52124,5.95612 -3.52124,9.65082 v 127.54762 c 0,1.565 -0.65251,3.08652 -1.73932,4.17333 -2.30358,2.30403 -6.04262,2.30403 -8.34621,0 z m 526.9251,10.43287 c -1.0868,-1.0868 -2.6082,-1.69541 -4.1734,-1.69541 l -127.1558,0.39124 c -3.69527,0 -7.04263,-1.30416 -9.65085,-3.52124 -2.17362,-2.60832 -3.5212,-5.99914 -3.5212,-9.65081 l 0.39125,-126.98205 c 0,-1.65194 -0.65221,-3.26041 -1.82595,-4.43414 -2.43438,-2.43445 -6.39038,-2.43445 -8.82477,0 l -89.55258,90.0742 c -2.60823,2.60834 -5.91222,4.04293 -9.30295,4.34724 -3.39091,-0.30431 -6.6947,-1.7389 -9.30313,-4.34724 l -89.55259,-90.0742 c -2.43481,-2.43445 -6.39039,-2.47793 -8.82477,0 -1.17416,1.17373 -1.82636,2.7822 -1.82636,4.43414 l 0.39165,126.98205 c 0,3.69512 -1.304,7.08596 -3.52119,9.65081 -2.60822,2.17361 -5.99956,3.52124 -9.65083,3.52124 l -127.15587,-0.39124 c -1.56499,0 -3.08651,0.60861 -4.17332,1.73888 l -0.34821,0.34778 c -2.30358,2.30403 -2.30358,6.04262 0,8.34665 l 90.33539,89.76992 c 2.60802,2.60834 4.04292,5.9122 4.34725,9.30302 -0.30433,3.39084 -1.73923,6.69472 -4.34725,9.30304 l -90.16106,89.63951 c -1.13028,1.0868 -1.7389,2.60833 -1.7389,4.17332 v 0.52167 c 0,3.26039 2.65137,5.91221 5.91178,5.86873 l 127.37375,-0.39125 c 3.69504,0 7.08596,1.30415 9.65083,3.52124 2.17363,2.6518 3.5212,5.99915 3.5212,9.69429 l -0.39166,127.15593 c 0,1.565 0.60864,3.08653 1.73924,4.17332 l 0.34788,0.34779 c 2.30349,2.30402 6.04208,2.30402 8.34661,0 l 89.76999,-90.33507 c 2.60823,-2.60833 5.91222,-4.0429 9.30293,-4.3472 3.39093,0.3043 6.69472,1.73887 9.30315,4.3472 l 89.6395,90.16117 c 1.08681,1.13029 2.60823,1.7389 4.1732,1.7389 h 0.52173 c 3.26044,0 5.91222,-2.65181 5.86866,-5.91221 l -0.39124,-127.37332 c 0,-3.69512 1.30422,-7.04247 3.5212,-9.6508 2.60843,-2.1736 5.99914,-3.52124 9.65079,-3.52124 l 127.3735,0.39125 c 3.2604,0 5.9122,-2.60834 5.9122,-5.86873 v -0.52167 c 0,-1.56499 -0.6087,-3.04305 -1.739,-4.17332 l -30.8216,-30.82174 c -1.0435,-1.04333 -2.2172,-1.95624 -3.391,-2.82569 l -55.992,-55.99208 c -2.6083,-2.60832 -4.043,-5.9122 -4.3473,-9.30304 0.3043,-3.39082 1.739,-6.69468 4.3473,-9.30302 l 90.2917,-89.76992 c 2.3039,-2.30403 2.3039,-6.08611 0,-8.39013 z m -137.89366,138.50217 29.56116,29.56104 h -41.82022 c -11.38964,0 -21.73602,4.26026 -29.6914,11.17232 -0.8694,0.73903 -1.69545,1.565 -2.43438,2.43444 -6.95568,7.95539 -11.17245,18.34525 -11.17245,29.69145 v 41.82018 l -29.56091,-29.56103 c -8.0425,-8.04234 -18.38889,-12.38955 -28.90913,-13.08512 -0.56071,-0.0434 -1.13017,-0.0653 -1.69963,-0.0653 -0.58259,0 -1.16518,0.0217 -1.73464,0.0653 -10.52024,0.69557 -20.86664,5.04278 -28.90892,13.08512 L 818.0578,641.65768 V 599.8375 c 0,-11.38969 -4.26013,-21.73606 -11.21623,-29.69145 -0.73851,-0.86944 -1.56498,-1.69541 -2.43396,-2.43444 -7.95537,-6.95554 -18.34512,-11.17232 -29.73498,-11.17232 h -41.82017 l 29.56113,-29.56104 c 8.04186,-8.04236 12.38912,-18.38871 13.0851,-28.90896 0.0875,-1.13028 0.0875,-2.30403 0,-3.43431 -0.69598,-10.52025 -5.04324,-20.8666 -13.0851,-28.90895 l -29.56113,-29.56105 h 41.82017 c 11.38986,0 21.77961,-4.26026 29.73498,-11.21579 0.47607,-0.4043 0.9386,-0.83511 1.38112,-1.28505 0.36644,-0.37167 0.71872,-0.75597 1.05284,-1.1494 6.9561,-7.95539 11.21623,-18.34522 11.21623,-29.73493 v -41.82016 l 29.56112,29.56103 c 8.04228,8.04234 18.38868,12.38956 28.90892,13.0851 1.13037,0.0869 2.3041,0.0869 3.43427,0 10.52024,-0.69554 20.86663,-5.04276 28.90913,-13.0851 l 29.56091,-29.56103 v 41.82016 c 0,11.38971 4.26033,21.77954 11.17245,29.73493 0.73893,0.86945 1.56498,1.69542 2.43438,2.43445 7.95538,6.95553 18.34512,11.21579 29.6914,11.21579 h 41.82022 l -29.56116,29.56105 c -8.04229,8.04235 -12.38953,18.3887 -13.0851,28.90895 -0.0875,1.13028 -0.0875,2.30403 0,3.43431 0.69557,10.52025 5.04281,20.8666 13.0851,28.90896 z m 157.41266,87.63977 63.4258,63.42581 -0.044,0.087 c 5.0861,5.1297 7.9552,11.9983 7.9552,19.21467 v 100.33363 c 0,10.99845 -3.9559,21.08397 -10.5201,28.90896 -1.1737,1.39112 -2.478,2.73875 -3.9127,3.91251 -7.8248,6.56427 -17.9105,10.52023 -28.9089,10.52023 h -100.3336 c -7.2164,0 -14.1285,-2.86915 -19.2147,-7.95538 l -63.42577,-63.42582 c -2.30411,-2.30402 -2.30411,-6.04263 0,-8.34665 1.13017,-1.13027 2.60822,-1.73887 4.17317,-1.73887 h 127.5473 c 3.6517,0 7.0426,-1.34764 9.6508,-3.52125 2.217,-2.65181 3.5213,-5.99916 3.5213,-9.69428 V 618.7913 c 0,-1.565 0.6521,-3.08651 1.739,-4.17332 2.3038,-2.30403 6.0424,-2.30403 8.3465,0 z"
   fill="#070707"
   id="path1"
   style="fill:#ee274d;fill-opacity:1;stroke-width:0.999999" /></svg>
