<?xml version="1.0" encoding="UTF-8" standalone="no"?>
<svg
   width="157"
   height="122"
   viewBox="0 0 157 122"
   fill="none"
   version="1.1"
   id="svg1"
   sodipodi:docname="geldata.svg"
   inkscape:version="1.4.2 (ebf0e940d0, 2025-05-08)"
   xmlns:inkscape="http://www.inkscape.org/namespaces/inkscape"
   xmlns:sodipodi="http://sodipodi.sourceforge.net/DTD/sodipodi-0.dtd"
   xmlns="http://www.w3.org/2000/svg"
   xmlns:svg="http://www.w3.org/2000/svg">
  <defs
     id="defs1" />
  <sodipodi:namedview
     id="namedview1"
     pagecolor="#505050"
     bordercolor="#eeeeee"
     borderopacity="1"
     inkscape:showpageshadow="0"
     inkscape:pageopacity="0"
     inkscape:pagecheckerboard="0"
     inkscape:deskcolor="#d1d1d1"
     inkscape:zoom="2.0737705"
     inkscape:cx="33.513834"
     inkscape:cy="31.343874"
     inkscape:window-width="2832"
     inkscape:window-height="710"
     inkscape:window-x="2923"
     inkscape:window-y="5"
     inkscape:window-maximized="1"
     inkscape:current-layer="svg1" />
  <path
     d="m 20.735178,56.616276 c 0,12.628334 10.195401,22.823662 22.823735,22.823662 12.512508,0 22.823736,-10.195328 22.823736,-22.823662 0,-12.512508 -10.311228,-22.823736 -22.823736,-22.823736 -12.628334,0 -22.823735,10.311228 -22.823735,22.823736 z M 118.51828,24.987418 c 0,-4.286684 3.59105,-8.109947 8.11002,-8.109947 4.51824,0 8.34109,3.823263 8.34109,8.109947 v 46.342573 c 0,4.286735 -3.82285,8.109947 -8.34109,8.109947 -4.51897,0 -8.11002,-3.823212 -8.11002,-8.109947 z M 26.759714,90.794107 c 0.92685,7.99376 7.530699,15.292853 16.799199,15.292853 9.152674,0 15.988168,-7.299093 16.91507,-15.292853 1.274379,-11.585821 -9.268574,-7.76261 -16.91507,-7.76261 -7.646569,0 -18.073622,-3.823211 -16.799199,7.76261 z M 100.32832,59.86021 c 0.81093,-1.853656 2.89638,-3.012282 6.95176,-3.012282 6.3719,-0.115826 8.92095,-4.286662 5.56097,-10.890504 -2.31726,-4.518388 -5.9083,-7.994048 -10.77461,-10.195328 -11.469777,-5.097738 -25.025013,0.115826 -30.122677,11.585606 -5.097737,11.353955 0,24.90919 11.585607,30.12268 4.866012,2.085455 9.731951,2.433006 14.713496,1.158554 7.183554,-1.969556 8.689884,-6.719668 4.402704,-11.469781 -2.664581,-3.128109 -3.243712,-5.329389 -2.31725,-7.298945 z"
     fill="#9ac01f"
     id="path1"
     style="stroke-width:1" />
</svg>
