<?xml version="1.0" encoding="UTF-8" standalone="no"?>
<svg
   height="1000"
   width="1000"
   version="1.1"
   id="svg3"
   sodipodi:docname="lincolnloop-logo.svg"
   inkscape:version="1.4.2 (ebf0e940d0, 2025-05-08)"
   xmlns:inkscape="http://www.inkscape.org/namespaces/inkscape"
   xmlns:sodipodi="http://sodipodi.sourceforge.net/DTD/sodipodi-0.dtd"
   xmlns="http://www.w3.org/2000/svg"
   xmlns:svg="http://www.w3.org/2000/svg">
  <defs
     id="defs3" />
  <sodipodi:namedview
     id="namedview3"
     pagecolor="#505050"
     bordercolor="#eeeeee"
     borderopacity="1"
     inkscape:showpageshadow="0"
     inkscape:pageopacity="0"
     inkscape:pagecheckerboard="0"
     inkscape:deskcolor="#d1d1d1"
     inkscape:zoom="0.32664712"
     inkscape:cx="537.27704"
     inkscape:cy="-113.27208"
     inkscape:window-width="3840"
     inkscape:window-height="2160"
     inkscape:window-x="1920"
     inkscape:window-y="0"
     inkscape:window-maximized="1"
     inkscape:current-layer="svg3" />
  <g
     fill="none"
     fill-rule="evenodd"
     id="g3"
     transform="matrix(0.81263096,0,0,0.81263096,38.096499,278.4768)"
     style="stroke-width:1.23057">
    <path
       d="m 606.76,135.77 c 0,-8.61 5.2,-13.09 13.09,-13.09 7.89,0 13.09,4.48 13.09,13.09 v 107.64 c 0,8.61 -5.2,13.1 -13.09,13.1 -7.89,0 -13.09,-4.49 -13.09,-13.1 z m 59.19,-13.81 c 7.5263,0 13.6282,6.1003 13.63,13.6267 0.002,7.5263 -6.097,13.6296 -13.6233,13.6333 -7.5264,0.004 -13.6312,-6.0937 -13.6367,-13.62 0,-7.5276 6.1024,-13.63 13.63,-13.63 z m -13.09,49.16 c 0,-7 2.87,-13.1 13.09,-13.1 10.22,0 13.09,6.1 13.09,13.1 v 72.3 c 0,7 -2.87,13.1 -13.09,13.1 -10.22,0 -13.09,-6.1 -13.09,-13.1 z m 44.66,-0.01 c 0,-7.89 3.59,-13.1 11.84,-13.1 8.25,0 11.84,5.2 11.84,13.1 v 3.41 h 0.36 c 7.36,-9.69 16.86,-16.51 31.75,-16.51 15.79,0 33,7.89 33,34.44 v 50.95 c 0,7 -2.87,13.1 -13.09,13.1 -10.22,0 -13.1,-6.1 -13.1,-13.1 v -45.73 c 0,-10.59 -5.2,-18.12 -16.5,-18.12 -11.179,0.2352 -20.0719,9.4498 -19.91,20.63 v 43.23 c 0,7 -2.87,13.1 -13.1,13.1 -10.23,0 -13.09,-6.1 -13.09,-13.1 z m 149.96,-13.09 c 21.89,0 38.21,12.38 38.21,24.58 0,7.54 -5.56,11.3 -12.2,11.3 -12.38,0 -7.89,-15.43 -26.73,-15.43 -10.22,0 -22.24,7 -22.24,30.68 0,16.32 7.71,26.91 22.06,26.91 18.3,0 14.36,-16.86 28.17,-16.86 6.64,0 10.94,4.84 10.94,10 0,11.48 -12.91,27.27 -39.82,27.27 -32.29,0 -47.54,-19.91 -47.54,-47.36 0,-30.14 17,-51.13 49.15,-51.13 z m 92.93,0 c 31.57,0 48.44,21.53 48.44,49.16 0,26.19 -12.74,49.33 -48.44,49.33 -35.7,0 -48.44,-23.14 -48.44,-49.33 0,-27.63 16.86,-49.16 48.44,-49.16 z m 0,79.11 c 15.6,0 22.25,-14 22.25,-30 0,-17 -7,-29.78 -22.25,-29.78 -15.25,0 -22.25,12.74 -22.25,29.78 0,16 6.64,30 22.25,30 z m 62.95,-101.36 c 0,-8.61 5.2,-13.09 13.1,-13.09 7.9,0 13.1,4.48 13.1,13.09 v 107.64 c 0,8.61 -5.2,13.1 -13.1,13.1 -7.9,0 -13.1,-4.49 -13.1,-13.1 z m 44.66,35.34 c 0,-7.89 3.59,-13.1 11.84,-13.1 8.25,0 11.84,5.2 11.84,13.1 v 3.41 h 0.36 c 7.35,-9.69 16.86,-16.51 31.75,-16.51 15.79,0 33,7.89 33,34.44 v 50.95 c 0,7 -2.87,13.1 -13.1,13.1 -10.23,0 -13.09,-6.1 -13.09,-13.1 v -45.73 c 0,-10.59 -5.2,-18.12 -16.5,-18.12 -11.179,0.2352 -20.0719,9.4498 -19.91,20.63 v 43.23 c 0,7 -2.87,13.1 -13.1,13.1 -10.23,0 -13.1,-6.1 -13.1,-13.1 z M 606.76,294.3 c 0,-8.61 5.2,-13.09 13.09,-13.09 7.89,0 13.09,4.48 13.09,13.09 v 107.64 c 0,8.61 -5.2,13.1 -13.09,13.1 -7.89,0 -13.09,-4.49 -13.09,-13.1 z m 89.15,22.25 c 31.57,0 48.44,21.53 48.44,49.16 0,26.19 -12.74,49.33 -48.44,49.33 -35.7,0 -48.44,-23.14 -48.44,-49.33 0,-27.63 16.86,-49.16 48.44,-49.16 z m 0,79.11 c 15.61,0 22.25,-14 22.25,-30 0,-17 -7,-29.78 -22.25,-29.78 -15.25,0 -22.25,12.74 -22.25,29.78 0,16 6.64,30 22.25,30 z m 106.01,-79.11 c 31.57,0 48.44,21.53 48.44,49.16 0,26.19 -12.74,49.33 -48.44,49.33 -35.7,0 -48.44,-23.14 -48.44,-49.33 0,-27.63 16.86,-49.16 48.44,-49.16 z m 0,79.11 c 15.61,0 22.24,-14 22.24,-30 0,-17 -7,-29.78 -22.24,-29.78 -15.24,0 -22.25,12.74 -22.25,29.78 0,16 6.64,30 22.25,30 z m 61.49,-66.73 c 0,-8.07 3.77,-12.38 11.84,-12.38 7.71,0 11.84,4.31 11.84,12.38 v 4.13 h 0.36 c 4.31,-11.12 14.89,-16.51 27.63,-16.51 21.88,0 41.08,16 41.08,49.87 0,25.11 -12.74,48.62 -40.37,48.62 -12,0 -21,-4.84 -25.83,-13.28 h -0.36 v 35 c 0,8.61 -5.21,13.1 -13.1,13.1 -7.89,0 -13.09,-4.5 -13.09,-13.12 z m 45.75,8.07 c -15.25,0 -21,13.63 -21,28.52 0,13.45 5,29.24 21,29.06 16.68,0 20.81,-16.86 20.81,-29.06 0,-15.43 -6.82,-28.16 -20.81,-28.52 z"
       fill="#292929"
       fill-rule="nonzero"
       id="path1"
       style="stroke-width:1.23057" />
    <path
       d="M 272.6,0 C 122.3,0 0,122.3 0,272.6 0,422.9 122.3,545.2 272.6,545.2 423.84,545.2 546.14,422.91 546.14,272.61 546.14,122.31 423.83,0 272.6,0"
       fill="#74cdd6"
       id="path2"
       style="stroke-width:1.23057" />
    <path
       d="m 259.97,184.38 v 92.03 a 40.48,40.48 0 0 1 -6,20 c -1.43,2.76 -2.8,5 -3.65,6.38 C 248.77,305.2 200,374.6 200,374.6 l -19.78,28 c -11.31,16.15 -27,17.73 -41.76,7.36 -14.76,-10.37 -18.67,-25.61 -7.36,-41.76 l 52,-74.45 7.17,-10.27 0.72,-1 a 43,43 0 0 0 9,-25.23 V 153.2 c 0,-19.71 11.91,-30 30,-30 18.09,0 30,10.27 30,30 z m 147.7,225.57 c -14.81,10.37 -30.46,8.79 -41.76,-7.36 l -19.78,-28 c 0,0 -48.77,-69.37 -50.25,-71.76 -0.86,-1.38 -2.22,-3.62 -3.65,-6.38 a 40.48,40.48 0 0 1 -6,-20 V 153.2 c 0,-19.71 11.91,-30 30,-30 18.09,0 30,10.27 30,30 v 103.96 a 43,43 0 0 0 9,25.23 l 0.72,1 7.17,10.27 52,74.45 c 11.31,16.15 7.44,31.39 -7.36,41.76 z"
       fill="#ffffff"
       id="path3"
       style="stroke-width:2.12192" />
  </g>
</svg>
