<?xml version="1.0" encoding="UTF-8" standalone="no"?>
<!-- Generator: Adobe Illustrator 27.3.0, SVG Export Plug-In . SVG Version: 6.00 Build 0)  -->

<svg
   version="1.1"
   id="Layer_1"
   x="0px"
   y="0px"
   viewBox="0 0 1763.5 1763.5"
   style="enable-background:new 0 0 1763.5 1763.5;"
   xml:space="preserve"
   sodipodi:docname="logo.svg"
   inkscape:version="1.4.1 (93de688d07, 2025-03-30)"
   xmlns:inkscape="http://www.inkscape.org/namespaces/inkscape"
   xmlns:sodipodi="http://sodipodi.sourceforge.net/DTD/sodipodi-0.dtd"
   xmlns="http://www.w3.org/2000/svg"
   xmlns:svg="http://www.w3.org/2000/svg"><defs
   id="defs3" /><sodipodi:namedview
   id="namedview3"
   pagecolor="#505050"
   bordercolor="#eeeeee"
   borderopacity="1"
   inkscape:showpageshadow="0"
   inkscape:pageopacity="0"
   inkscape:pagecheckerboard="0"
   inkscape:deskcolor="#d1d1d1"
   inkscape:zoom="0.24553445"
   inkscape:cx="443.92956"
   inkscape:cy="667.93072"
   inkscape:window-width="2026"
   inkscape:window-height="1070"
   inkscape:window-x="3729"
   inkscape:window-y="5"
   inkscape:window-maximized="1"
   inkscape:current-layer="Layer_1" />
<style
   type="text/css"
   id="style1">
	.st0{fill:url(#SVGID_1_);}
</style>
<linearGradient
   id="SVGID_1_"
   gradientUnits="userSpaceOnUse"
   x1="77.5448"
   y1="645.1022"
   x2="1742.8217"
   y2="1119.2615"
   gradientTransform="matrix(1 0 0 -1 0 1761.9454)">
	<stop
   offset="9.701765e-04"
   style="stop-color:#3638AE"
   id="stop1" />
	<stop
   offset="0.3168"
   style="stop-color:#5846BC"
   id="stop2" />
	<stop
   offset="1"
   style="stop-color:#AB68DE"
   id="stop3" />
</linearGradient>

<path
   fill-rule="evenodd"
   clip-rule="evenodd"
   d="m 872.01828,263.79832 -136.8408,136.84079 0.0748,0.0748 -18.33024,18.33023 c -1.94449,1.94525 -4.48903,2.99269 -7.18246,2.99269 -5.61129,0 -10.17514,-4.56385 -10.17514,-10.17514 V 257.43883 c 0,-12.41967 4.93793,-24.31561 13.69156,-33.06923 L 835.35781,102.26783 c 13.3923,-13.467036 30.45063,-20.874096 47.95787,-22.445183 3.21714,-0.299268 6.35948,-0.299268 9.57662,0 17.50723,1.571087 34.56555,9.052824 47.95784,22.445183 l 122.02706,122.1766 c 8.7537,8.75363 13.6916,20.64957 13.6916,33.06924 v 154.42285 c 0,5.53648 -4.4891,10.10033 -10.1004,10.10033 -2.6934,0 -5.312,-1.12225 -7.1824,-2.99268 l -60.52725,-60.52718 -94.71868,-94.71867 c -4.48904,-4.48903 -10.17515,-6.958 -16.0109,-7.48173 -5.83575,0.52373 -11.52185,2.9927 -16.01089,7.48173 z m 802.04122,571.67883 c 13.4671,13.46708 20.874,30.52537 22.4452,48.03268 l -0.075,-0.14971 c 0.2994,3.2172 0.2994,6.35948 0,9.57668 -1.5711,17.5072 -9.0528,34.5656 -22.4451,47.95789 l -122.1018,122.10171 c -8.7537,8.7537 -20.6496,13.6916 -33.0693,13.6916 h -154.4228 c -5.5365,0 -10.1003,-4.489 -10.1003,-10.1003 0,-2.6935 1.1222,-5.312 2.9927,-7.1825 l 60.5271,-60.52714 94.7186,-94.71874 c 4.4891,-4.48903 6.958,-10.17509 7.4817,-16.01086 -0.5237,-5.83577 -2.9926,-11.52183 -7.4817,-16.01086 l -136.8407,-136.84085 -18.3302,-18.33023 c -1.9453,-1.94525 -2.9927,-4.48903 -2.9927,-7.18243 0,-5.53648 4.489,-10.10033 10.1003,-10.10033 h 154.4228 c 12.4197,0 24.3156,4.93794 33.0693,13.69156 z m -897.80733,52.82091 c 0,-61.87388 50.12757,-112.00143 112.00145,-112.00143 61.87389,0 112.00148,50.12755 112.00148,112.00143 0,61.87388 -50.12759,112.00154 -112.00148,112.00154 -61.87388,0 -112.00145,-50.12766 -112.00145,-112.00154 z M 421.76792,1066.7373 c 0,-2.6935 -1.04744,-5.312 -2.99268,-7.1825 L 263.52939,904.30903 c -4.48904,-4.48903 -6.95726,-10.1752 -7.48172,-16.01097 0.52446,-5.83566 2.99268,-11.52183 7.48172,-16.01086 l 136.8408,-136.84074 18.33023,-18.33022 c 1.87043,-1.87046 2.99269,-4.48915 2.99269,-7.18252 0,-5.61129 -4.56385,-10.17515 -10.17515,-10.17515 H 257.16992 c -12.41966,0 -24.31561,4.93794 -33.06924,13.69155 L 102.07394,835.55195 c -13.392586,13.39228 -20.874311,30.45057 -22.445185,47.95788 -0.299269,3.21709 -0.299269,6.35949 0,9.57657 1.570874,17.5072 8.977709,34.5656 22.445185,48.03269 l 122.10157,122.10181 c 8.75362,8.7536 20.64956,13.6915 33.06923,13.6915 h 154.34804 c 5.61129,0 10.17514,-4.5638 10.17514,-10.1751 z m 577.14053,351.2672 -94.71875,94.7186 c -4.48904,4.4891 -10.17515,6.958 -16.0109,7.4817 -5.83575,-0.5237 -11.52185,-2.9926 -16.01089,-7.4817 L 716.92206,1357.4772 c -1.87043,-1.8703 -4.48902,-2.9926 -7.18245,-2.9926 -5.61129,0 -10.10033,4.5638 -10.10033,10.1004 v 154.4228 c 0,12.4197 4.93869,24.2408 13.69156,32.9944 l 122.10179,122.1018 c 13.39229,13.3923 30.45063,20.874 47.95787,22.4451 3.21715,0.2993 6.35947,0.2993 9.57661,0 17.50725,-1.5711 34.56554,-8.978 47.95783,-22.4451 l 122.10186,-122.1018 c 8.7537,-8.7536 13.6916,-20.6495 13.6916,-33.0693 V 1364.51 c 0,-5.6112 -4.5638,-10.1002 -10.1004,-10.1002 -2.6934,0 -5.2371,1.0474 -7.1824,2.9926 l -60.52715,60.5272 z M 1318.3034,435.35508 h -193.5523 l 0.075,0.0748 h -25.9616 c -2.6934,0 -5.312,-1.12227 -7.1824,-2.9927 -3.9653,-3.96531 -3.9653,-10.3996 0,-14.36491 l 109.1583,-109.1584 c 8.7537,-8.75362 20.6496,-13.69157 33.0693,-13.69157 h 172.6783 c 18.9287,0 36.2863,6.80837 49.7535,18.10579 2.3941,2.02006 4.6386,4.26458 6.7335,6.73355 11.2974,13.46711 18.1058,30.82472 18.1058,49.75348 v 172.67827 c 0,12.41967 -4.9379,24.31561 -13.6916,33.06924 l -109.1583,109.15839 c -3.9653,3.96532 -10.3996,3.96532 -14.3649,0 -1.9453,-1.94524 -2.9927,-4.48903 -2.9927,-7.18245 V 458.02471 c 0,-6.28465 -2.3194,-12.1204 -6.0603,-16.60943 -4.489,-3.81569 -10.2499,-6.0602 -16.6094,-6.0602 z M 591.82834,1341.2419 H 457.83061 c -6.35948,0 -12.19523,-2.2445 -16.60944,-6.0602 -3.74086,-4.5638 -6.06095,-10.3248 -6.06095,-16.6842 v -219.514 c 0,-2.6933 -1.04744,-5.2372 -2.99268,-7.1824 -3.96458,-3.9653 -10.39962,-3.9653 -14.36418,0 L 308.6442,1200.9595 c -8.75287,8.7537 -13.6908,20.6496 -13.6908,32.9945 v 172.6783 c 0,18.9287 6.80836,36.2863 18.10577,49.7534 2.09414,2.469 4.33941,4.7135 6.73281,6.7336 13.46785,11.2974 30.82471,18.1057 49.75349,18.1057 h 172.67902 c 12.41892,0 24.2408,-4.9379 32.99367,-13.6915 L 684.3773,1358.3751 c 3.96457,-3.9653 3.96457,-10.3996 0,-14.3649 -1.87043,-1.8705 -4.48978,-2.9927 -7.1832,-2.9927 H 591.6787 Z M 417.87818,684.72105 308.71902,575.56265 v -0.0748 c -8.75287,-8.75436 -13.69081,-20.65032 -13.69081,-33.06997 V 369.74032 c 0,-18.92876 6.80838,-36.28637 18.10578,-49.75348 2.01932,-2.39415 4.26459,-4.63866 6.73281,-6.73355 13.46786,-11.29741 30.82471,-18.10579 49.75348,-18.10579 H 542.2993 c 12.41893,0 24.31562,4.93795 33.06849,13.69082 l 109.15914,109.15915 c 3.96457,3.96532 3.96457,10.39961 0,14.36492 -1.94525,1.94525 -4.48978,2.99193 -7.1832,2.99193 H 457.90542 c -6.28465,0 -12.1204,2.31934 -16.60943,6.06021 -3.81568,4.41422 -6.06021,10.25072 -6.06021,16.60943 v 219.51463 c 0,2.69343 -1.123,5.31202 -2.99343,7.18246 -3.96457,3.96531 -10.3996,3.96531 -14.36417,0 z m 906.85952,17.95539 c -1.8705,-1.87042 -4.4891,-2.91787 -7.1826,-2.91787 l -218.8405,0.67336 c -6.3594,0 -12.1203,-2.24452 -16.6093,-6.0602 -3.7409,-4.48904 -6.0603,-10.32478 -6.0603,-16.60944 l 0.6734,-218.54125 c 0,-2.84306 -1.1222,-5.6113 -3.1424,-7.63137 -4.1897,-4.18976 -10.9981,-4.18976 -15.1878,0 L 904.26452,606.61106 c -4.48903,4.48904 -10.17515,6.95801 -16.0109,7.48174 -5.83574,-0.52373 -11.52186,-2.9927 -16.0109,-7.48174 L 718.11914,451.58967 c -4.19051,-4.18976 -10.99814,-4.26458 -15.1879,0 -2.02082,2.02007 -3.14308,4.78831 -3.14308,7.63137 l 0.67411,218.54125 c 0,6.35947 -2.24453,12.19522 -6.06021,16.60944 -4.48902,3.74086 -10.32552,6.0602 -16.60942,6.0602 l -218.84052,-0.67336 c -2.69343,0 -5.31204,1.04745 -7.18246,2.9927 l -0.59929,0.59853 c -3.96457,3.96532 -3.96457,10.39964 0,14.36495 L 606.64142,872.2124 c 4.48828,4.48903 6.958,10.17509 7.48172,16.01086 -0.52372,5.83577 -2.99344,11.52183 -7.48172,16.01097 L 451.47039,1058.5074 c -1.94526,1.8704 -2.9927,4.489 -2.9927,7.1825 v 0.8978 c 0,5.6113 4.56312,10.1751 10.17441,10.1003 l 219.21535,-0.6733 c 6.35947,0 12.19522,2.2444 16.60944,6.0602 3.74085,4.5638 6.06019,10.3248 6.06019,16.6842 l -0.6741,218.8406 c 0,2.6934 1.04744,5.3119 2.99344,7.1824 l 0.59854,0.5985 c 3.96457,3.9653 10.39886,3.9653 14.36491,0 l 154.49768,-155.4703 c 4.48903,-4.489 10.17514,-6.958 16.01089,-7.4817 5.83574,0.5237 11.52186,2.9927 16.0109,7.4817 l 154.27326,155.1711 c 1.8704,1.9453 4.489,2.9927 7.1825,2.9927 h 0.8978 c 5.6113,0 10.1751,-4.5638 10.1003,-10.1752 l -0.6733,-219.2147 c 0,-6.3593 2.2445,-12.1203 6.0602,-16.6093 4.489,-3.741 10.3248,-6.0602 16.6093,-6.0602 l 219.2147,0.6733 c 5.6113,0 10.1752,-4.489 10.1752,-10.1003 v -0.8978 c 0,-2.6935 -1.0475,-5.2373 -2.9927,-7.1825 l -53.0455,-53.0455 c -1.7956,-1.7956 -3.8157,-3.3668 -5.8357,-4.8631 l -96.3647,-96.36457 c -4.489,-4.48914 -6.958,-10.1752 -7.4817,-16.01097 0.5237,-5.83577 2.9927,-11.52183 7.4817,-16.01086 l 155.3955,-154.49765 c 3.9653,-3.96531 3.9653,-10.47444 0,-14.43977 z m -237.3205,238.36785 50.8758,50.87577 h -71.9742 c -19.6022,0 -37.4087,7.33211 -51.1002,19.22804 -1.4963,1.2718 -2.9178,2.6934 -4.1898,4.1897 -11.97075,13.6916 -19.22809,31.5729 -19.22809,51.1002 v 71.9743 l -50.87577,-50.8758 c -13.8412,-13.8412 -31.64766,-21.3229 -49.75344,-22.52 -0.96515,-0.075 -1.94526,-0.1122 -2.92536,-0.1122 -1.00256,0 -2.0051,0.037 -2.98521,0.1122 -18.10577,1.1971 -35.91229,8.6788 -49.75349,22.52 l -50.87574,50.8758 v -71.9743 c 0,-19.6021 -7.33209,-37.4086 -19.3036,-51.1002 -1.27115,-1.4963 -2.69343,-2.9179 -4.18902,-4.1897 -13.69157,-11.97084 -31.57289,-19.22804 -51.17502,-19.22804 h -71.97421 l 50.87573,-50.87577 c 13.84045,-13.8412 21.32219,-31.64772 22.52,-49.75354 0.14964,-1.94526 0.14964,-3.96532 0,-5.91057 -1.19781,-18.10572 -8.67955,-35.91223 -22.52,-49.75343 l -50.87573,-50.87577 h 71.97421 c 19.60213,0 37.48345,-7.33212 51.17502,-19.30286 0.81925,-0.69574 1.61531,-1.43724 2.37695,-2.2116 0.6307,-0.63967 1.23672,-1.3011 1.81207,-1.97811 11.97151,-13.6916 19.3036,-31.57292 19.3036,-51.17509 v -71.97418 l 50.87574,50.87575 c 13.8412,13.84119 31.64772,21.32295 49.75349,22.51998 1.94525,0.1496 3.96531,0.1496 5.91057,0 18.10578,-1.19703 35.91224,-8.67879 49.75344,-22.51998 l 50.87577,-50.87575 v 71.97418 c 0,19.60217 7.33214,37.48349 19.22809,51.17509 1.272,1.49634 2.6935,2.91788 4.1898,4.18971 13.6915,11.97074 31.5728,19.30286 51.1002,19.30286 h 71.9742 l -50.8758,50.87577 c -13.8412,13.8412 -21.3229,31.64771 -22.5199,49.75343 -0.1496,1.94525 -0.1496,3.96531 0,5.91057 1.197,18.10582 8.6787,35.91234 22.5199,49.75354 z m 270.9134,150.83161 109.1584,109.1584 -0.075,0.1497 c 8.7537,8.8284 13.6916,20.6495 13.6916,33.0692 v 172.6783 c 0,18.9287 -6.8084,36.2864 -18.1058,49.7535 -2.02,2.3942 -4.2645,4.7134 -6.7335,6.7335 -13.4671,11.2974 -30.8247,18.1058 -49.7535,18.1058 h -172.6785 c -12.4197,0 -24.3156,-4.9379 -33.0693,-13.6916 l -109.1583,-109.1583 c -3.9653,-3.9653 -3.9653,-10.3996 0,-14.3649 1.9453,-1.9453 4.489,-2.9927 7.1824,-2.9927 h 219.5139 c 6.2847,0 12.1204,-2.3194 16.6094,-6.0603 3.8157,-4.5638 6.0603,-10.3247 6.0603,-16.6842 v -219.514 c 0,-2.6933 1.1222,-5.312 2.9927,-7.1824 3.9653,-3.9653 10.3996,-3.9653 14.3649,0 z"
   fill="#070707"
   id="path1"
   style="fill:#ee274d;fill-opacity:1;stroke-width:1" /></svg>
